<svg width="11" height="14" viewBox="0 0 11 14" fill="none" xmlns="http://www.w3.org/2000/svg">
<path d="M10.733 5.64436C10.6863 5.63682 10.3272 5.57887 9.81001 5.50105V3.63637C9.81008 1.63125 7.8892 0 5.52819 0C3.16718 0 1.24637 1.63125 1.24637 3.63634V5.49244C0.699105 5.57455 0.315311 5.63649 0.266853 5.64434C0.112015 5.66941 0 5.78439 0 5.91829V9.05938C0 10.0379 0.910128 11.1658 2.70514 12.4116C4.00357 13.3129 5.28062 13.937 5.33436 13.9631C5.38491 13.9878 5.44122 14 5.49754 14C5.55382 14 5.6101 13.9877 5.66062 13.9632C5.71442 13.9371 6.99266 13.3129 8.29225 12.4117C10.089 11.1658 11 10.0379 11 9.05938V5.91829C11 5.78442 10.8879 5.66944 10.733 5.64436ZM1.90313 3.63634C1.90313 1.93881 3.52933 0.557759 5.52819 0.557759C7.52704 0.557759 9.15324 1.93884 9.15324 3.63634V5.40431C8.90462 5.36852 8.63992 5.33141 8.36911 5.29491V3.63634C8.36911 2.30601 7.09466 1.22369 5.52819 1.22369C3.96171 1.22369 2.68727 2.30601 2.68727 3.63634V5.28709C2.41729 5.32329 2.15266 5.36023 1.90313 5.39603V3.63634ZM7.71234 3.63634V5.20957C6.84697 5.10164 6.00239 5.01619 5.49783 5.01619C5.49776 5.01619 5.4976 5.01619 5.4975 5.01619C5.00495 5.01622 4.1879 5.09787 3.34407 5.2023V3.63634C3.34407 2.61355 4.32384 1.78145 5.52822 1.78145C6.7326 1.78145 7.71234 2.61355 7.71234 3.63634ZM10.3432 9.05938H10.3432C10.3432 9.84989 9.49261 10.8581 7.88334 11.9752C6.88924 12.6652 5.88246 13.2 5.4976 13.397C5.1141 13.2006 4.11311 12.6685 3.12081 11.9798C1.50884 10.8609 0.656798 9.85107 0.656798 9.05938V6.14995C1.54732 6.01044 4.41934 5.57406 5.49763 5.57398C5.49776 5.57398 5.49776 5.57398 5.49792 5.57398C6.57738 5.57398 9.45217 6.0105 10.3432 6.14998V9.05938Z" fill="black"/>
<path d="M6.5722 8.65136C6.84361 8.47123 7 8.22752 7 7.97201C7 7.43606 6.3271 7 5.5 7C4.67294 7 4 7.43603 4 7.97201C4 8.23524 4.16352 8.48353 4.44747 8.66455L4.17329 9.68614C4.15237 9.76406 4.18566 9.84399 4.26424 9.90452C4.34282 9.96506 4.45866 10 4.5807 10H6.41934C6.54037 10 6.65536 9.96561 6.7339 9.90597C6.81248 9.8463 6.8467 9.76732 6.82768 9.68984L6.5722 8.65136ZM5.88843 8.32796C5.76006 8.38695 5.69454 8.48802 5.71927 8.5887L5.93465 9.4641H5.07236L5.30347 8.6032C5.33145 8.49884 5.26204 8.39362 5.12629 8.33466C4.93901 8.25332 4.82718 8.11777 4.82718 7.97204C4.82718 7.73158 5.12904 7.53598 5.50008 7.53598C5.87112 7.53598 6.17298 7.73158 6.17298 7.97204C6.17298 8.11302 6.06663 8.24607 5.88843 8.32796Z" fill="black"/>
<path d="M1.29571 6.41434C1.09219 6.41434 0.927216 6.53919 0.927216 6.69322V7.05577C0.927216 7.2098 1.09219 7.33465 1.29571 7.33465C1.49923 7.33465 1.6642 7.2098 1.6642 7.05577V6.69322C1.6642 6.53919 1.49923 6.41434 1.29571 6.41434Z" fill="black"/>
<path d="M1.29571 7.80879C1.09219 7.80879 0.927216 7.93364 0.927216 8.08767V9.03937C0.927216 9.1934 1.09219 9.31825 1.29571 9.31825C1.49923 9.31825 1.6642 9.1934 1.6642 9.03937V8.08767C1.6642 7.93364 1.49923 7.80879 1.29571 7.80879Z" fill="black"/>
</svg>
