<svg width="15" height="15" viewBox="0 0 15 15" fill="none" xmlns="http://www.w3.org/2000/svg">
<path d="M7.49903 0C4.98134 0 2.93381 1.97098 2.93381 4.39453C2.93381 4.39465 2.93381 4.39477 2.93381 4.39488C2.936 6.0624 3.91777 7.55314 5.4109 8.29342C3.2829 8.96361 1.48603 10.6322 0.5224 12.9137C0.50767 12.9486 0.5 12.9861 0.5 13.0239V14.707C0.5 14.8688 0.636287 15 0.804348 15H14.1957C14.3637 15 14.5 14.8688 14.5 14.707V13.0239C14.5 12.9861 14.4923 12.9486 14.4775 12.9136C13.5143 10.6331 11.7186 8.96502 9.59178 8.2943C11.0836 7.55256 12.0635 6.06146 12.0642 4.39459C12.0642 4.39453 12.0642 4.39453 12.0642 4.39447C12.0642 1.97098 10.0168 0 7.49903 0ZM7.49903 0.585938C9.68771 0.585938 11.4555 2.28756 11.4555 4.39441C11.4548 6.12035 10.2517 7.62732 8.51944 8.0724C8.35704 8.11418 8.26056 8.27479 8.30396 8.43111C8.33452 8.54121 8.42863 8.6243 8.54525 8.64404C10.8332 9.03117 12.8517 10.6679 13.8913 13.0886V14.4141H1.1087V13.0886C2.1492 10.6659 4.17019 9.02836 6.46071 8.64293C6.62628 8.61504 6.73706 8.46322 6.70809 8.30385C6.68763 8.19123 6.60096 8.10035 6.48616 8.07105C4.75137 7.62885 3.54494 6.12193 3.54257 4.39453V4.3943V4.39418C3.54275 2.28744 5.31046 0.585938 7.49903 0.585938ZM7.49903 1.02527C5.55698 1.02527 3.99903 2.52498 3.99903 4.39441C3.99781 4.47533 4.06501 4.54184 4.14907 4.54295C4.23313 4.54412 4.30222 4.47943 4.30337 4.39852C4.30337 4.39711 4.30337 4.39576 4.30337 4.39436C4.30337 2.68102 5.71908 1.31818 7.49903 1.31818C7.58309 1.31936 7.65217 1.25467 7.65333 1.17375C7.65449 1.09283 7.58735 1.02633 7.50329 1.02521C7.50195 1.02527 7.50049 1.02527 7.49903 1.02527ZM13.2794 12.8007C13.1954 12.8019 13.1283 12.8684 13.1295 12.9492V13.6816H10.2382C10.1541 13.6805 10.085 13.7452 10.0839 13.8261C10.0827 13.907 10.1498 13.9735 10.2339 13.9746C10.2354 13.9746 10.2368 13.9746 10.2382 13.9746H13.2817C13.3658 13.9746 13.4339 13.909 13.4339 13.8281V12.9492C13.435 12.8683 13.3679 12.8018 13.2838 12.8007C13.2823 12.8006 13.2808 12.8006 13.2794 12.8007Z" fill="black"/>
</svg>
